<svg xmlns="http://www.w3.org/2000/svg" height="678.0" width="1315.0"><desc>{"leftTopX": 6136, "leftTopY": 6422, "rightBottomX": 7451, "rightBottomY": 7060}</desc><g transform="translate(0.5,0.5)"><g class="reference"><polyline fill="none" points="521.0,435.0 776.0,435.0 776.0,403.0 865.0,403.0" stroke="#000000" stroke-linejoin="miter"/><g class="cardinality"><line stroke="#000000" stroke-width="1.0" x1="802.0" x2="817.0" y1="403.0" y2="397.0"/><line stroke="#000000" stroke-width="1.0" x1="802.0" x2="817.0" y1="403.0" y2="409.0"/><g transform="translate(802.0,403.0)"><circle fill="white" r="3.5" stroke="#000000" stroke-width="1.0"/></g></g><g class="mandatory"><line stroke="#000000" stroke-width="1.0" x1="672.0" x2="672.0" y1="429.0" y2="441.0"/></g></g><g class="reference"><polyline fill="none" points="544.0,414.0 730.0,414.0 730.0,276.0 849.0,276.0" stroke="#000000" stroke-linejoin="miter"/><g class="cardinality"><line stroke="#000000" stroke-width="1.0" x1="786.0" x2="801.0" y1="276.0" y2="270.0"/><line stroke="#000000" stroke-width="1.0" x1="786.0" x2="801.0" y1="276.0" y2="282.0"/><g transform="translate(786.0,276.0)"><circle fill="white" r="3.5" stroke="#000000" stroke-width="1.0"/></g></g><g class="mandatory"><line stroke="#000000" stroke-width="1.0" x1="672.0" x2="672.0" y1="408.0" y2="420.0"/></g></g><g class="reference"><polyline fill="none" points="523.0,370.0 603.0,370.0 603.0,207.0 497.0,207.0" stroke="#000000" stroke-linejoin="miter"/><g class="cardinality"><line stroke="#000000" stroke-width="1.0" x1="603.0" x2="597.0" y1="301.0" y2="286.0"/><line stroke="#000000" stroke-width="1.0" x1="603.0" x2="609.0" y1="301.0" y2="286.0"/><g transform="translate(603.0,301.0)"><circle fill="white" r="3.5" stroke="#000000" stroke-width="1.0"/></g></g><g class="mandatory"><line stroke="#000000" stroke-width="1.0" x1="597.0" x2="609.0" y1="330.0" y2="330.0"/></g></g><g class="reference"><polyline fill="none" points="923.0,389.0 923.0,416.0 892.0,416.0 892.0,280.0" stroke="#000000" stroke-linejoin="miter"/><g class="cardinality"><line stroke="#000000" stroke-width="1.0" x1="892.0" x2="886.0" y1="322.0" y2="307.0"/><line stroke="#000000" stroke-width="1.0" x1="892.0" x2="898.0" y1="322.0" y2="307.0"/><g transform="translate(892.0,322.0)"><circle fill="white" r="3.5" stroke="#000000" stroke-width="1.0"/></g></g><g class="mandatory"><line stroke="#000000" stroke-width="1.0" x1="886.0" x2="898.0" y1="346.0" y2="346.0"/></g></g><g class="reference"><polyline fill="none" points="1007.0,273.0 1135.0,273.0 1135.0,279.0 1115.0,279.0" stroke="#000000" stroke-linejoin="miter"/><g class="cardinality"><line stroke="#000000" stroke-width="1.0" x1="1082.0" x2="1097.0" y1="273.0" y2="267.0"/><line stroke="#000000" stroke-width="1.0" x1="1082.0" x2="1097.0" y1="273.0" y2="279.0"/><g transform="translate(1082.0,273.0)"><circle fill="white" r="3.5" stroke="#000000" stroke-width="1.0"/></g></g><g class="mandatory"><line stroke="#000000" stroke-width="1.0" x1="1035.0" x2="1035.0" y1="267.0" y2="279.0"/></g></g><g class="reference"><polyline fill="none" points="530.0,436.0 530.0,416.0 556.0,416.0 556.0,581.0" stroke="#000000" stroke-linejoin="miter"/><g class="cardinality"><line stroke="#000000" stroke-width="1.0" x1="556.0" x2="550.0" y1="531.0" y2="546.0"/><line stroke="#000000" stroke-width="1.0" x1="556.0" x2="562.0" y1="531.0" y2="546.0"/><g transform="translate(556.0,531.0)"><circle fill="white" r="3.5" stroke="#000000" stroke-width="1.0"/></g></g><g class="mandatory"><line stroke="#000000" stroke-width="1.0" x1="550.0" x2="562.0" y1="505.0" y2="505.0"/></g></g><g class="reference"><polyline fill="none" points="261.0,316.0 236.0,316.0 236.0,581.0 458.0,581.0" stroke="#000000" stroke-linejoin="miter"/><g class="cardinality"><line stroke="#000000" stroke-width="1.0" x1="391.0" x2="406.0" y1="581.0" y2="575.0"/><line stroke="#000000" stroke-width="1.0" x1="391.0" x2="406.0" y1="581.0" y2="587.0"/><g transform="translate(391.0,581.0)"><circle fill="white" r="3.5" stroke="#000000" stroke-width="1.0"/></g></g><g class="mandatory"><line stroke="#000000" stroke-width="1.0" x1="230.0" x2="242.0" y1="341.0" y2="341.0"/></g></g><g class="reference"><polyline fill="none" points="220.0,276.0 220.0,200.0 220.0,200.0 220.0,80.0" stroke="#000000" stroke-linejoin="miter"/><g class="cardinality"><line stroke="#000000" stroke-width="1.0" x1="220.0" x2="214.0" y1="154.0" y2="139.0"/><line stroke="#000000" stroke-width="1.0" x1="220.0" x2="226.0" y1="154.0" y2="139.0"/><g transform="translate(220.0,154.0)"><circle fill="white" r="3.5" stroke="#000000" stroke-width="1.0"/></g></g><g class="mandatory"><line stroke="#000000" stroke-width="1.0" x1="214.0" x2="226.0" y1="226.0" y2="226.0"/></g></g><g class="reference"><polyline fill="none" points="422.0,434.0 279.0,434.0 279.0,266.0 232.0,266.0" stroke="#000000" stroke-linejoin="miter"/><g class="cardinality"><line stroke="#000000" stroke-width="1.0" x1="279.0" x2="273.0" y1="341.0" y2="326.0"/><line stroke="#000000" stroke-width="1.0" x1="279.0" x2="285.0" y1="341.0" y2="326.0"/><g transform="translate(279.0,341.0)"><circle fill="white" r="3.5" stroke="#000000" stroke-width="1.0"/></g></g><g class="mandatory"><line stroke="#000000" stroke-width="1.0" x1="397.0" x2="397.0" y1="428.0" y2="440.0"/></g></g><g class="reference"><polyline fill="none" points="513.0,373.0 513.0,260.0" stroke="#000000" stroke-linejoin="miter"/><g class="cardinality"><line stroke="#000000" stroke-width="1.0" x1="513.0" x2="507.0" y1="301.0" y2="286.0"/><line stroke="#000000" stroke-width="1.0" x1="513.0" x2="519.0" y1="301.0" y2="286.0"/><g transform="translate(513.0,301.0)"><circle fill="white" r="3.5" stroke="#000000" stroke-width="1.0"/></g></g><g class="mandatory"><line stroke="#000000" stroke-width="1.0" x1="507.0" x2="519.0" y1="330.0" y2="330.0"/></g></g><g class="table" transform="translate(446.0,145.0)"><g transform="translate(0.0,0.0)"><rect fill="#f0f0f0" height="20.0" width="207.0"/></g><g transform="translate(0.0,0.0)"><text fill="black" font-family="arial, sans-serif" font-size="12" font-weight="700" text-anchor="middle" x="104.5" y="14.190625">Tasks</text></g><g transform="translate(0.0,20.0)"><rect fill="#ffffff" height="121.0" width="207.0"/><g transform="translate(4.0,3.0)"><g transform="translate(0.0,0.0)"><text fill="black" font-family="arial, sans-serif" font-size="12" font-weight="400" x="1.0" y="11.138671875">task_id</text></g><g transform="translate(0.0,14.0)"><text fill="black" font-family="arial, sans-serif" font-size="12" font-weight="400" x="1.0" y="11.138671875">user_id</text></g><g transform="translate(0.0,28.0)"><text fill="black" font-family="arial, sans-serif" font-size="12" font-weight="400" x="1.0" y="11.138671875">task_name</text></g><g transform="translate(0.0,42.0)"><text fill="black" font-family="arial, sans-serif" font-size="12" font-weight="400" x="1.0" y="11.138671875">task_descripti</text></g><g transform="translate(0.0,56.0)"><text fill="black" font-family="arial, sans-serif" font-size="12" font-weight="400" x="1.0" y="11.138671875">status</text></g><g transform="translate(0.0,70.0)"><text fill="black" font-family="arial, sans-serif" font-size="12" font-weight="400" x="1.0" y="11.138671875">completed_by</text></g><g transform="translate(0.0,84.0)"><text fill="black" font-family="arial, sans-serif" font-size="12" font-weight="400" x="1.0" y="11.138671875">updated_at</text></g></g><g transform="translate(93.0,3.0)"><g transform="translate(0.0,0.0)"><text fill="black" font-family="arial, sans-serif" font-size="12" font-weight="400" x="1.0" y="11.138671875">int</text></g><g transform="translate(0.0,14.0)"><text fill="black" font-family="arial, sans-serif" font-size="12" font-weight="400" x="1.0" y="11.138671875">int</text></g><g transform="translate(0.0,28.0)"><text fill="black" font-family="arial, sans-serif" font-size="12" font-weight="400" x="1.0" y="11.138671875">varchar(50)</text></g><g transform="translate(0.0,42.0)"><text fill="black" font-family="arial, sans-serif" font-size="12" font-weight="400" x="1.0" y="11.138671875">varchar(250)</text></g><g transform="translate(0.0,56.0)"><text fill="black" font-family="arial, sans-serif" font-size="12" font-weight="400" x="1.0" y="11.138671875">bool</text></g><g transform="translate(0.0,70.0)"><text fill="black" font-family="arial, sans-serif" font-size="12" font-weight="400" x="1.0" y="11.138671875">varchar(255)</text></g><g transform="translate(0.0,84.0)"><text fill="black" font-family="arial, sans-serif" font-size="12" font-weight="400" x="1.0" y="11.138671875">timestamp</text></g></g><g transform="translate(175.25,3.0)"><g transform="translate(0.0,0.0)"><text fill="black" font-family="arial, sans-serif" font-size="12" font-weight="400" x="1.0" y="11.138671875">PK</text></g><g transform="translate(0.0,14.0)"><text fill="black" font-family="arial, sans-serif" font-size="12" font-weight="400" x="1.0" y="11.138671875">FK</text></g><g transform="translate(0.0,28.0)"><text fill="black" font-family="arial, sans-serif" font-size="12" font-weight="400" x="1.0" y="11.138671875"/></g><g transform="translate(0.0,42.0)"><text fill="black" font-family="arial, sans-serif" font-size="12" font-weight="400" x="1.0" y="11.138671875"/></g><g transform="translate(0.0,56.0)"><text fill="black" font-family="arial, sans-serif" font-size="12" font-weight="400" x="1.0" y="11.138671875"/></g><g transform="translate(0.0,70.0)"><text fill="black" font-family="arial, sans-serif" font-size="12" font-weight="400" x="1.0" y="11.138671875">N FK</text></g><g transform="translate(0.0,84.0)"><text fill="black" font-family="arial, sans-serif" font-size="12" font-weight="400" x="1.0" y="11.138671875"/></g></g></g><polyline fill="none" points="0.0,20.0 0.0,0.0 207.0,0.0 207.0,20.0 0.0,20.0 0.0,141.0 207.0,141.0 207.0,20.0" stroke="#000000" stroke-linejoin="miter"/></g><g class="table" transform="translate(412.0,345.0)"><g transform="translate(0.0,0.0)"><rect fill="#f0f0f0" height="20.0" width="245.0"/></g><g transform="translate(0.0,0.0)"><text fill="black" font-family="arial, sans-serif" font-size="12" font-weight="700" text-anchor="middle" x="123.5" y="14.190625">Users</text></g><g transform="translate(0.0,20.0)"><rect fill="#ffffff" height="125.0" width="245.0"/><g transform="translate(4.0,3.0)"><g transform="translate(0.0,0.0)"><text fill="black" font-family="arial, sans-serif" font-size="12" font-weight="400" x="1.0" y="11.138671875">user_id</text></g><g transform="translate(0.0,14.0)"><text fill="black" font-family="arial, sans-serif" font-size="12" font-weight="400" x="1.0" y="11.138671875">cognito_sub</text></g><g transform="translate(0.0,28.0)"><text fill="black" font-family="arial, sans-serif" font-size="12" font-weight="400" x="1.0" y="11.138671875">display_name</text></g><g transform="translate(0.0,42.0)"><text fill="black" font-family="arial, sans-serif" font-size="12" font-weight="400" x="1.0" y="11.138671875">email</text></g><g transform="translate(0.0,56.0)"><text fill="black" font-family="arial, sans-serif" font-size="12" font-weight="400" x="1.0" y="11.138671875">created_at</text></g><g transform="translate(0.0,70.0)"><text fill="black" font-family="arial, sans-serif" font-size="12" font-weight="400" x="1.0" y="11.138671875">last_login</text></g><g transform="translate(0.0,84.0)"><text fill="black" font-family="arial, sans-serif" font-size="12" font-weight="400" x="1.0" y="11.138671875">role</text></g></g><g transform="translate(143.5,3.0)"><g transform="translate(0.0,0.0)"><text fill="black" font-family="arial, sans-serif" font-size="12" font-weight="400" x="1.0" y="11.138671875">int</text></g><g transform="translate(0.0,14.0)"><text fill="black" font-family="arial, sans-serif" font-size="12" font-weight="400" x="1.0" y="11.138671875">varchar(255)</text></g><g transform="translate(0.0,28.0)"><text fill="black" font-family="arial, sans-serif" font-size="12" font-weight="400" x="1.0" y="11.138671875">varchar(255)</text></g><g transform="translate(0.0,42.0)"><text fill="black" font-family="arial, sans-serif" font-size="12" font-weight="400" x="1.0" y="11.138671875">varchar(255)</text></g><g transform="translate(0.0,56.0)"><text fill="black" font-family="arial, sans-serif" font-size="12" font-weight="400" x="1.0" y="11.138671875">timestamp</text></g><g transform="translate(0.0,70.0)"><text fill="black" font-family="arial, sans-serif" font-size="12" font-weight="400" x="1.0" y="11.138671875">timestamp</text></g><g transform="translate(0.0,84.0)"><text fill="black" font-family="arial, sans-serif" font-size="12" font-weight="400" x="1.0" y="11.138671875">varchar(20)</text></g></g><g transform="translate(225.75,3.0)"><g transform="translate(0.0,0.0)"><text fill="black" font-family="arial, sans-serif" font-size="12" font-weight="400" x="1.0" y="11.138671875">PK</text></g><g transform="translate(0.0,14.0)"><text fill="black" font-family="arial, sans-serif" font-size="12" font-weight="400" x="1.0" y="11.138671875"/></g><g transform="translate(0.0,28.0)"><text fill="black" font-family="arial, sans-serif" font-size="12" font-weight="400" x="1.0" y="11.138671875"/></g><g transform="translate(0.0,42.0)"><text fill="black" font-family="arial, sans-serif" font-size="12" font-weight="400" x="1.0" y="11.138671875"/></g><g transform="translate(0.0,56.0)"><text fill="black" font-family="arial, sans-serif" font-size="12" font-weight="400" x="1.0" y="11.138671875"/></g><g transform="translate(0.0,70.0)"><text fill="black" font-family="arial, sans-serif" font-size="12" font-weight="400" x="1.0" y="11.138671875"/></g><g transform="translate(0.0,84.0)"><text fill="black" font-family="arial, sans-serif" font-size="12" font-weight="400" x="1.0" y="11.138671875"/></g></g></g><polyline fill="none" points="0.0,20.0 0.0,0.0 245.0,0.0 245.0,20.0 0.0,20.0 0.0,145.0 245.0,145.0 245.0,20.0" stroke="#000000" stroke-linejoin="miter"/></g><g class="table" transform="translate(801.0,220.0)"><g transform="translate(0.0,0.0)"><rect fill="#f0f0f0" height="20.0" width="219.0"/></g><g transform="translate(0.0,0.0)"><text fill="black" font-family="arial, sans-serif" font-size="12" font-weight="700" text-anchor="middle" x="110.5" y="14.190625">Meals</text></g><g transform="translate(0.0,20.0)"><rect fill="#ffffff" height="67.0" width="219.0"/><g transform="translate(4.0,3.0)"><g transform="translate(0.0,0.0)"><text fill="black" font-family="arial, sans-serif" font-size="12" font-weight="400" x="1.0" y="11.138671875">meal_id</text></g><g transform="translate(0.0,14.0)"><text fill="black" font-family="arial, sans-serif" font-size="12" font-weight="400" x="1.0" y="11.138671875">user_id</text></g><g transform="translate(0.0,28.0)"><text fill="black" font-family="arial, sans-serif" font-size="12" font-weight="400" x="1.0" y="11.138671875">item_id</text></g><g transform="translate(0.0,42.0)"><text fill="black" font-family="arial, sans-serif" font-size="12" font-weight="400" x="1.0" y="11.138671875">meal_name</text></g></g><g transform="translate(125.0,3.0)"><g transform="translate(0.0,0.0)"><text fill="black" font-family="arial, sans-serif" font-size="12" font-weight="400" x="1.0" y="11.138671875">int</text></g><g transform="translate(0.0,14.0)"><text fill="black" font-family="arial, sans-serif" font-size="12" font-weight="400" x="1.0" y="11.138671875">int</text></g><g transform="translate(0.0,28.0)"><text fill="black" font-family="arial, sans-serif" font-size="12" font-weight="400" x="1.0" y="11.138671875">int</text></g><g transform="translate(0.0,42.0)"><text fill="black" font-family="arial, sans-serif" font-size="12" font-weight="400" x="1.0" y="11.138671875">varchar(30)</text></g></g><g transform="translate(199.75,3.0)"><g transform="translate(0.0,0.0)"><text fill="black" font-family="arial, sans-serif" font-size="12" font-weight="400" x="1.0" y="11.138671875">PK</text></g><g transform="translate(0.0,14.0)"><text fill="black" font-family="arial, sans-serif" font-size="12" font-weight="400" x="1.0" y="11.138671875">FK</text></g><g transform="translate(0.0,28.0)"><text fill="black" font-family="arial, sans-serif" font-size="12" font-weight="400" x="1.0" y="11.138671875">FK</text></g><g transform="translate(0.0,42.0)"><text fill="black" font-family="arial, sans-serif" font-size="12" font-weight="400" x="1.0" y="11.138671875"/></g></g></g><polyline fill="none" points="0.0,20.0 0.0,0.0 219.0,0.0 219.0,20.0 0.0,20.0 0.0,87.0 219.0,87.0 219.0,20.0" stroke="#000000" stroke-linejoin="miter"/></g><g class="table" transform="translate(817.0,361.0)"><g transform="translate(0.0,0.0)"><rect fill="#f0f0f0" height="20.0" width="179.0"/></g><g transform="translate(0.0,0.0)"><text fill="black" font-family="arial, sans-serif" font-size="12" font-weight="700" text-anchor="middle" x="90.5" y="14.190625">Groceries</text></g><g transform="translate(0.0,20.0)"><rect fill="#ffffff" height="69.0" width="179.0"/><g transform="translate(4.0,3.0)"><g transform="translate(0.0,0.0)"><text fill="black" font-family="arial, sans-serif" font-size="12" font-weight="400" x="1.0" y="11.138671875">item_id</text></g><g transform="translate(0.0,14.0)"><text fill="black" font-family="arial, sans-serif" font-size="12" font-weight="400" x="1.0" y="11.138671875">user_id</text></g><g transform="translate(0.0,28.0)"><text fill="black" font-family="arial, sans-serif" font-size="12" font-weight="400" x="1.0" y="11.138671875">type</text></g><g transform="translate(0.0,42.0)"><text fill="black" font-family="arial, sans-serif" font-size="12" font-weight="400" x="1.0" y="11.138671875">item_name</text></g></g><g transform="translate(85.0,3.0)"><g transform="translate(0.0,0.0)"><text fill="black" font-family="arial, sans-serif" font-size="12" font-weight="400" x="1.0" y="11.138671875">int</text></g><g transform="translate(0.0,14.0)"><text fill="black" font-family="arial, sans-serif" font-size="12" font-weight="400" x="1.0" y="11.138671875">int</text></g><g transform="translate(0.0,28.0)"><text fill="black" font-family="arial, sans-serif" font-size="12" font-weight="400" x="1.0" y="11.138671875">varchar(30)</text></g><g transform="translate(0.0,42.0)"><text fill="black" font-family="arial, sans-serif" font-size="12" font-weight="400" x="1.0" y="11.138671875">varchar(30)</text></g></g><g transform="translate(159.75,3.0)"><g transform="translate(0.0,0.0)"><text fill="black" font-family="arial, sans-serif" font-size="12" font-weight="400" x="1.0" y="11.138671875">PK</text></g><g transform="translate(0.0,14.0)"><text fill="black" font-family="arial, sans-serif" font-size="12" font-weight="400" x="1.0" y="11.138671875">FK</text></g><g transform="translate(0.0,28.0)"><text fill="black" font-family="arial, sans-serif" font-size="12" font-weight="400" x="1.0" y="11.138671875"/></g><g transform="translate(0.0,42.0)"><text fill="black" font-family="arial, sans-serif" font-size="12" font-weight="400" x="1.0" y="11.138671875"/></g></g></g><polyline fill="none" points="0.0,20.0 0.0,0.0 179.0,0.0 179.0,20.0 0.0,20.0 0.0,89.0 179.0,89.0 179.0,20.0" stroke="#000000" stroke-linejoin="miter"/></g><g class="table" transform="translate(84.0,241.0)"><g transform="translate(0.0,0.0)"><rect fill="#f0f0f0" height="20.0" width="237.0"/></g><g transform="translate(0.0,0.0)"><text fill="black" font-family="arial, sans-serif" font-size="12" font-weight="700" text-anchor="middle" x="119.5" y="14.190625">Households</text></g><g transform="translate(0.0,20.0)"><rect fill="#ffffff" height="65.0" width="237.0"/><g transform="translate(4.0,3.0)"><g transform="translate(0.0,0.0)"><text fill="black" font-family="arial, sans-serif" font-size="12" font-weight="400" x="1.0" y="11.138671875">household_id</text></g><g transform="translate(0.0,14.0)"><text fill="black" font-family="arial, sans-serif" font-size="12" font-weight="400" x="1.0" y="11.138671875">group_name</text></g><g transform="translate(0.0,28.0)"><text fill="black" font-family="arial, sans-serif" font-size="12" font-weight="400" x="1.0" y="11.138671875">created_by_user_id</text></g></g><g transform="translate(143.0,3.0)"><g transform="translate(0.0,0.0)"><text fill="black" font-family="arial, sans-serif" font-size="12" font-weight="400" x="1.0" y="11.138671875">int</text></g><g transform="translate(0.0,14.0)"><text fill="black" font-family="arial, sans-serif" font-size="12" font-weight="400" x="1.0" y="11.138671875">varchar(30)</text></g><g transform="translate(0.0,28.0)"><text fill="black" font-family="arial, sans-serif" font-size="12" font-weight="400" x="1.0" y="11.138671875">int</text></g></g><g transform="translate(217.75,3.0)"><g transform="translate(0.0,0.0)"><text fill="black" font-family="arial, sans-serif" font-size="12" font-weight="400" x="1.0" y="11.138671875">PK</text></g><g transform="translate(0.0,14.0)"><text fill="black" font-family="arial, sans-serif" font-size="12" font-weight="400" x="1.0" y="11.138671875"/></g><g transform="translate(0.0,28.0)"><text fill="black" font-family="arial, sans-serif" font-size="12" font-weight="400" x="1.0" y="11.138671875">FK</text></g></g></g><polyline fill="none" points="0.0,20.0 0.0,0.0 237.0,0.0 237.0,20.0 0.0,20.0 0.0,85.0 237.0,85.0 237.0,20.0" stroke="#000000" stroke-linejoin="miter"/></g><g class="table" transform="translate(1097.0,235.0)"><g transform="translate(0.0,0.0)"><rect fill="#f0f0f0" height="20.0" width="198.0"/></g><g transform="translate(0.0,0.0)"><text fill="black" font-family="arial, sans-serif" font-size="12" font-weight="700" text-anchor="middle" x="100.0" y="14.190625">Ingredients</text></g><g transform="translate(0.0,20.0)"><rect fill="#ffffff" height="53.0" width="198.0"/><g transform="translate(4.0,3.0)"><g transform="translate(0.0,0.0)"><text fill="black" font-family="arial, sans-serif" font-size="12" font-weight="400" x="1.0" y="11.138671875">ingredient_id</text></g><g transform="translate(0.0,14.0)"><text fill="black" font-family="arial, sans-serif" font-size="12" font-weight="400" x="1.0" y="11.138671875">meal_id</text></g><g transform="translate(0.0,28.0)"><text fill="black" font-family="arial, sans-serif" font-size="12" font-weight="400" x="1.0" y="11.138671875">ingredient_na</text></g></g><g transform="translate(96.5,3.0)"><g transform="translate(0.0,0.0)"><text fill="black" font-family="arial, sans-serif" font-size="12" font-weight="400" x="1.0" y="11.138671875">int</text></g><g transform="translate(0.0,14.0)"><text fill="black" font-family="arial, sans-serif" font-size="12" font-weight="400" x="1.0" y="11.138671875">int</text></g><g transform="translate(0.0,28.0)"><text fill="black" font-family="arial, sans-serif" font-size="12" font-weight="400" x="1.0" y="11.138671875">varchar(255)</text></g></g><g transform="translate(178.75,3.0)"><g transform="translate(0.0,0.0)"><text fill="black" font-family="arial, sans-serif" font-size="12" font-weight="400" x="1.0" y="11.138671875">PK</text></g><g transform="translate(0.0,14.0)"><text fill="black" font-family="arial, sans-serif" font-size="12" font-weight="400" x="1.0" y="11.138671875">FK</text></g><g transform="translate(0.0,28.0)"><text fill="black" font-family="arial, sans-serif" font-size="12" font-weight="400" x="1.0" y="11.138671875"/></g></g></g><polyline fill="none" points="0.0,20.0 0.0,0.0 198.0,0.0 198.0,20.0 0.0,20.0 0.0,73.0 198.0,73.0 198.0,20.0" stroke="#000000" stroke-linejoin="miter"/></g><g class="table" transform="translate(406.0,546.0)"><g transform="translate(0.0,0.0)"><rect fill="#f0f0f0" height="20.0" width="263.0"/></g><g transform="translate(0.0,0.0)"><text fill="black" font-family="arial, sans-serif" font-size="12" font-weight="700" text-anchor="middle" x="132.5" y="14.190625">Household_Members</text></g><g transform="translate(0.0,20.0)"><rect fill="#ffffff" height="52.0" width="263.0"/><g transform="translate(4.0,3.0)"><g transform="translate(0.0,0.0)"><text fill="black" font-family="arial, sans-serif" font-size="12" font-weight="400" x="1.0" y="11.138671875">househol</text></g><g transform="translate(0.0,14.0)"><text fill="black" font-family="arial, sans-serif" font-size="12" font-weight="400" x="1.0" y="11.138671875">user_id</text></g><g transform="translate(0.0,28.0)"><text fill="black" font-family="arial, sans-serif" font-size="12" font-weight="400" x="1.0" y="11.138671875">role</text></g></g><g transform="translate(69.0,3.0)"><g transform="translate(0.0,0.0)"><text fill="black" font-family="arial, sans-serif" font-size="12" font-weight="400" x="1.0" y="11.138671875">int</text></g><g transform="translate(0.0,14.0)"><text fill="black" font-family="arial, sans-serif" font-size="12" font-weight="400" x="1.0" y="11.138671875">int</text></g><g transform="translate(0.0,28.0)"><text fill="black" font-family="arial, sans-serif" font-size="12" font-weight="400" x="1.0" y="11.138671875">enum('owner', 'member')</text></g></g><g transform="translate(225.25,3.0)"><g transform="translate(0.0,0.0)"><text fill="black" font-family="arial, sans-serif" font-size="12" font-weight="400" x="1.0" y="11.138671875">PK FK</text></g><g transform="translate(0.0,14.0)"><text fill="black" font-family="arial, sans-serif" font-size="12" font-weight="400" x="1.0" y="11.138671875">PK FK</text></g><g transform="translate(0.0,28.0)"><text fill="black" font-family="arial, sans-serif" font-size="12" font-weight="400" x="1.0" y="11.138671875"/></g></g></g><polyline fill="none" points="0.0,20.0 0.0,0.0 263.0,0.0 263.0,20.0 0.0,20.0 0.0,72.0 263.0,72.0 263.0,20.0" stroke="#000000" stroke-linejoin="miter"/></g><g class="table" transform="translate(20.0,20.0)"><g transform="translate(0.0,0.0)"><rect fill="#f0f0f0" height="20.0" width="376.0"/></g><g transform="translate(0.0,0.0)"><text fill="black" font-family="arial, sans-serif" font-size="12" font-weight="700" text-anchor="middle" x="189.0" y="14.190625">Invitations</text></g><g transform="translate(0.0,20.0)"><rect fill="#ffffff" height="99.0" width="376.0"/><g transform="translate(4.0,3.0)"><g transform="translate(0.0,0.0)"><text fill="black" font-family="arial, sans-serif" font-size="12" font-weight="400" x="1.0" y="11.138671875">Invitation_id</text></g><g transform="translate(0.0,14.0)"><text fill="black" font-family="arial, sans-serif" font-size="12" font-weight="400" x="1.0" y="11.138671875">household_id</text></g><g transform="translate(0.0,28.0)"><text fill="black" font-family="arial, sans-serif" font-size="12" font-weight="400" x="1.0" y="11.138671875">invited_by_user_i</text></g><g transform="translate(0.0,42.0)"><text fill="black" font-family="arial, sans-serif" font-size="12" font-weight="400" x="1.0" y="11.138671875">invited_user_emai</text></g><g transform="translate(0.0,56.0)"><text fill="black" font-family="arial, sans-serif" font-size="12" font-weight="400" x="1.0" y="11.138671875">created_at</text></g><g transform="translate(0.0,70.0)"><text fill="black" font-family="arial, sans-serif" font-size="12" font-weight="400" x="1.0" y="11.138671875">status</text></g></g><g transform="translate(117.5,3.0)"><g transform="translate(0.0,0.0)"><text fill="black" font-family="arial, sans-serif" font-size="12" font-weight="400" x="1.0" y="11.138671875">int</text></g><g transform="translate(0.0,14.0)"><text fill="black" font-family="arial, sans-serif" font-size="12" font-weight="400" x="1.0" y="11.138671875">int</text></g><g transform="translate(0.0,28.0)"><text fill="black" font-family="arial, sans-serif" font-size="12" font-weight="400" x="1.0" y="11.138671875">int</text></g><g transform="translate(0.0,42.0)"><text fill="black" font-family="arial, sans-serif" font-size="12" font-weight="400" x="1.0" y="11.138671875">varchar(255)</text></g><g transform="translate(0.0,56.0)"><text fill="black" font-family="arial, sans-serif" font-size="12" font-weight="400" x="1.0" y="11.138671875">timestamp</text></g><g transform="translate(0.0,70.0)"><text fill="black" font-family="arial, sans-serif" font-size="12" font-weight="400" x="1.0" y="11.138671875">ENUM('pending', 'accepted', 'declined')</text></g></g><g transform="translate(356.75,3.0)"><g transform="translate(0.0,0.0)"><text fill="black" font-family="arial, sans-serif" font-size="12" font-weight="400" x="1.0" y="11.138671875">PK</text></g><g transform="translate(0.0,14.0)"><text fill="black" font-family="arial, sans-serif" font-size="12" font-weight="400" x="1.0" y="11.138671875">FK</text></g><g transform="translate(0.0,28.0)"><text fill="black" font-family="arial, sans-serif" font-size="12" font-weight="400" x="1.0" y="11.138671875"/></g><g transform="translate(0.0,42.0)"><text fill="black" font-family="arial, sans-serif" font-size="12" font-weight="400" x="1.0" y="11.138671875"/></g><g transform="translate(0.0,56.0)"><text fill="black" font-family="arial, sans-serif" font-size="12" font-weight="400" x="1.0" y="11.138671875"/></g><g transform="translate(0.0,70.0)"><text fill="black" font-family="arial, sans-serif" font-size="12" font-weight="400" x="1.0" y="11.138671875"/></g></g></g><polyline fill="none" points="0.0,20.0 0.0,0.0 376.0,0.0 376.0,20.0 0.0,20.0 0.0,119.0 376.0,119.0 376.0,20.0" stroke="#000000" stroke-linejoin="miter"/></g><g transform="translate(1139.0,628.0)"><svg height="40" width="166"><svg xmlns:xlink="http://www.w3.org/1999/xlink" enable-background="new 0 0 487.7 116.5" id="Layer_1" version="1.0" viewBox="0 0 487.7 116.5" x="0px" xml:space="preserve" xmlns="http://www.w3.org/2000/svg" y="0px">
<g>
	<path d="M146.3,28.6c2.2-0.3,4.5-0.5,6.7-0.5c1.9,0,4,0.2,6.1,0.5l3.8,47l20.6-47c2-0.3,4.1-0.5,6.3-0.5   c2.2,0,4.3,0.2,6.4,0.5l-28.4,59.8c-2.5,0.3-4.9,0.5-7.3,0.5c-1.1,0-2.2,0-3.2-0.1c-1.1-0.1-2.2-0.2-3.5-0.4L146.3,28.6z" fill="#222323"/>
	<path d="M198.6,72.1c0.3,2.7,1.2,4.6,2.7,5.9c1.4,1.3,3.5,2,6.3,2c2.2,0,4.2-0.2,5.9-0.7c1.7-0.5,3.5-1.1,5.4-1.9   c0.9,1.1,1.5,2.5,1.8,4c0.3,1.6,0.5,3.3,0.5,5c-0.9,0.4-2,0.8-3.3,1.2c-1.2,0.4-2.5,0.7-3.9,0.9c-1.3,0.2-2.7,0.4-4,0.6   c-1.3,0.1-2.5,0.2-3.6,0.2c-3.4,0-6.3-0.4-8.7-1.2c-2.4-0.8-4.4-2-6-3.5c-1.6-1.5-2.7-3.4-3.5-5.6c-0.7-2.2-1.1-4.6-1.1-7.3   c0-3.4,0.6-6.7,1.7-10c1.2-3.3,2.8-6.2,5-8.8c2.1-2.6,4.7-4.7,7.8-6.2c3.1-1.6,6.5-2.4,10.4-2.4c1.8,0,3.5,0.2,5.1,0.7   c1.6,0.4,3,1.1,4.1,2c1.2,0.9,2.1,2,2.7,3.4c0.7,1.3,1,2.9,1,4.7c0,2.5-0.6,4.7-1.7,6.5c-1.2,1.8-2.7,3.4-4.7,4.7   c-1.9,1.3-4.1,2.3-6.6,3.1c-2.5,0.8-5,1.4-7.7,1.8L198.6,72.1z M203.3,63.6c2.1-0.3,3.8-0.8,5.2-1.3c1.3-0.5,2.4-1.1,3.2-1.7   c0.8-0.6,1.3-1.3,1.6-2c0.3-0.7,0.4-1.3,0.4-2c0-1.1-0.3-1.9-1-2.6c-0.7-0.7-1.6-1-2.8-1c-1.4,0-2.8,0.3-4,1   c-1.2,0.6-2.2,1.5-3.1,2.5c-0.9,1.1-1.7,2.3-2.3,3.6c-0.6,1.4-1.1,2.7-1.5,4.1L203.3,63.6z" fill="#222323"/>
	<path d="M231.5,63.9c0.6-3.5,1.1-6.6,1.4-9.3c0.3-2.7,0.5-4.8,0.5-6.3c0-0.6,0-1.1,0-1.5s0-0.9-0.1-1.4   c1.8-0.3,3.7-0.5,5.5-0.5c0.8,0,1.7,0,2.5,0.1c0.8,0.1,1.7,0.2,2.7,0.4c0.1,0.4,0.2,1,0.3,1.6c0.1,0.6,0.2,1.5,0.2,2.7   c0,0.5,0,1,0,1.5c0,0.5-0.1,1.1-0.2,1.8c0.6-1,1.2-2,2.1-3c0.8-1,1.8-1.8,2.8-2.6c1-0.8,2.2-1.4,3.4-1.9c1.2-0.5,2.6-0.7,4.1-0.7   c1.2,0,2.2,0.1,3,0.4c0.1,0.2,0.1,0.4,0.1,0.7c0,0.2,0,0.5,0,0.7c0,1.6-0.2,3.2-0.6,4.8c-0.4,1.7-0.9,3.1-1.6,4.2   c-0.3-0.1-0.7-0.1-1.1-0.2c-0.4-0.1-0.9-0.1-1.5-0.1c-2.3,0-4.1,0.4-5.6,1.2c-1.5,0.8-2.7,1.9-3.6,3.3c-0.9,1.4-1.7,3.1-2.2,5.1   c-0.6,2-1.1,4.2-1.5,6.7l-3.1,16.7c-2.2,0.3-4.2,0.5-6.1,0.5c-1.9,0-3.9-0.2-5.7-0.5L231.5,63.9z" fill="#222323"/>
	<path d="M269.7,54.4h-6.4c0-1.5,0.1-3,0.3-4.4c0.2-1.4,0.6-3,1.2-4.6h6.4l0.5-2.5c0.3-1.4,0.4-2.7,0.5-4   c0.1-1.2,0.1-2.3,0.1-3.1c1.4-0.9,3.2-1.6,5.4-2c2.2-0.4,4.2-0.6,6-0.6c0.3,0.8,0.4,1.9,0.4,3.2c0,0.9-0.1,1.8-0.2,2.9   c-0.1,1-0.3,2.2-0.5,3.4l-0.5,2.7h10.3c0,1.7-0.1,3.2-0.4,4.6c-0.3,1.4-0.7,2.9-1.2,4.4h-10.3l-2.9,16.4c-0.1,0.8-0.2,1.5-0.3,2.2   c-0.1,0.7-0.1,1.3-0.1,1.9c0,1.4,0.3,2.6,1,3.4c0.7,0.8,1.9,1.2,3.7,1.2c0.9,0,1.8-0.1,2.5-0.2c0.7-0.1,1.4-0.3,2-0.5   c0.7,1.6,1.1,3.7,1.1,6.3c0,0.4,0,0.9,0,1.3c0,0.4,0,0.9-0.1,1.3c-2.4,0.7-5.2,1.1-8.6,1.1c-4.7,0-8.1-0.9-10.4-2.6   c-2.2-1.7-3.4-4.6-3.4-8.7c0-0.8,0.1-1.7,0.2-2.6c0.1-0.9,0.2-1.9,0.4-2.9L269.7,54.4z" fill="#222323"/>
	<path d="M331.9,69.8c-0.6,3.5-1.1,6.6-1.3,9.3c-0.3,2.7-0.4,4.8-0.4,6.3c0,0.6,0,1.1,0,1.5s0,0.9,0.1,1.4   c-1.8,0.3-3.6,0.5-5.4,0.5c-1.6,0-3.3-0.2-5.2-0.5c-0.1-0.4-0.2-1-0.3-1.6c-0.1-0.6-0.2-1.5-0.2-2.7c0-0.5,0-1,0-1.6   c0-0.6,0.1-1.2,0.2-1.9c-1.6,2.6-3.7,4.7-6.2,6.4c-2.5,1.7-5.4,2.6-8.7,2.6c-3.7,0-6.4-1.2-8.2-3.5c-1.8-2.3-2.7-5.4-2.7-9.2   c0-4.2,0.6-8.2,1.9-12.1c1.2-3.9,3.1-7.3,5.6-10.3c2.5-3,5.5-5.4,9.2-7.2c3.7-1.8,7.9-2.7,12.8-2.7c2.4,0,4.7,0.2,6.8,0.5   c2.1,0.3,4.2,0.8,6.2,1.4L331.9,69.8z M323.3,54.3c-0.5-0.1-1-0.2-1.5-0.2c-0.5,0-0.9,0-1.4,0c-2.7,0-4.9,0.7-6.8,2   c-1.9,1.3-3.4,3-4.6,5c-1.2,2-2.1,4.1-2.7,6.4c-0.6,2.3-0.8,4.4-0.8,6.3c0,4.1,1.4,6.2,4.1,6.2c2.7,0,5.1-1.6,7.4-4.9   c2.3-3.2,3.9-7.8,5-13.7L323.3,54.3z" fill="#222323"/>
	<path d="M344.9,43.7c1-5.8,1.5-10.2,1.5-13.2c0-0.6,0-1.1,0-1.5c0-0.4-0.1-0.9-0.1-1.4c0.9-0.2,2-0.3,3.2-0.4   c1.2-0.1,2.3-0.1,3.2-0.1c1.6,0,3.4,0.2,5.3,0.5c0.3,0.8,0.4,1.9,0.4,3.2c0,2.4-0.3,5.4-1,8.9l-2.1,11.6c0.7-0.8,1.4-1.7,2.2-2.5   c0.8-0.8,1.7-1.5,2.8-2.2c1.1-0.7,2.3-1.2,3.7-1.6c1.4-0.4,3-0.6,4.8-0.6c3.9,0,6.9,1.3,8.9,4c2.1,2.7,3.1,6.5,3.1,11.6   c0,3.4-0.5,6.9-1.5,10.4c-1,3.5-2.7,6.7-5,9.5c-2.4,2.8-5.5,5.1-9.4,6.9c-3.9,1.8-8.7,2.7-14.4,2.7c-2.6,0-5-0.2-7.2-0.7   c-2.2-0.4-4.2-1.1-6.2-1.8L344.9,43.7z M350.4,79.1c0.4,0.2,1,0.3,1.7,0.4c0.7,0.1,1.4,0.1,2.1,0.1c2.4,0,4.5-0.6,6.3-1.7   c1.7-1.1,3.2-2.6,4.3-4.3c1.1-1.7,2-3.7,2.5-5.8c0.5-2.1,0.8-4.2,0.8-6.2c0-1.9-0.4-3.6-1.2-5c-0.8-1.4-2.2-2.1-4.1-2.1   c-2.6,0-4.7,1.1-6.6,3.2c-1.8,2.2-3.2,5.7-4,10.7L350.4,79.1z" fill="#222323"/>
	<path d="M395.7,72.1c0.3,2.7,1.2,4.6,2.7,5.9c1.4,1.3,3.5,2,6.3,2c2.2,0,4.2-0.2,5.9-0.7c1.7-0.5,3.5-1.1,5.4-1.9   c0.9,1.1,1.5,2.5,1.8,4c0.3,1.6,0.5,3.3,0.5,5c-0.9,0.4-2,0.8-3.3,1.2c-1.2,0.4-2.5,0.7-3.9,0.9c-1.3,0.2-2.7,0.4-4,0.6   c-1.3,0.1-2.5,0.2-3.6,0.2c-3.4,0-6.3-0.4-8.7-1.2c-2.4-0.8-4.4-2-6-3.5c-1.6-1.5-2.7-3.4-3.5-5.6c-0.7-2.2-1.1-4.6-1.1-7.3   c0-3.4,0.6-6.7,1.7-10c1.2-3.3,2.8-6.2,5-8.8c2.1-2.6,4.7-4.7,7.8-6.2c3.1-1.6,6.5-2.4,10.4-2.4c1.8,0,3.5,0.2,5.1,0.7   c1.6,0.4,3,1.1,4.1,2c1.2,0.9,2.1,2,2.7,3.4c0.7,1.3,1,2.9,1,4.7c0,2.5-0.6,4.7-1.7,6.5c-1.2,1.8-2.7,3.4-4.7,4.7   c-1.9,1.3-4.1,2.3-6.6,3.1c-2.5,0.8-5,1.4-7.7,1.8L395.7,72.1z M400.5,63.6c2.1-0.3,3.8-0.8,5.2-1.3c1.3-0.5,2.4-1.1,3.2-1.7   c0.8-0.6,1.3-1.3,1.6-2c0.3-0.7,0.4-1.3,0.4-2c0-1.1-0.3-1.9-1-2.6c-0.7-0.7-1.6-1-2.8-1c-1.4,0-2.8,0.3-4,1   c-1.2,0.6-2.2,1.5-3.1,2.5c-0.9,1.1-1.7,2.3-2.3,3.6c-0.6,1.4-1.1,2.7-1.5,4.1L400.5,63.6z" fill="#222323"/>
	<path d="M430.8,43.7c0.6-2.9,1-5.5,1.3-7.7c0.2-2.2,0.4-4,0.4-5.5c0-0.6,0-1.1,0-1.5c0-0.4-0.1-0.9-0.1-1.4   c0.9-0.2,2-0.3,3.2-0.4c1.2-0.1,2.3-0.1,3.2-0.1c1.6,0,3.4,0.2,5.3,0.5c0.3,0.8,0.4,1.9,0.4,3.2c0,1.2-0.1,2.5-0.3,4   c-0.2,1.5-0.5,3.1-0.8,4.9l-6.4,33.5c-0.2,0.9-0.2,1.7-0.2,2.3c0,0.9,0.1,1.6,0.4,2.1s0.6,0.9,1,1.2c0.4,0.3,0.8,0.5,1.3,0.5   c0.5,0.1,1,0.1,1.5,0.1c0.2,0,0.6,0,1.2-0.1c0.6-0.1,1.2-0.2,1.7-0.4c0.3,0.9,0.5,2,0.7,3.1c0.2,1.1,0.3,2.2,0.3,3.4   c0,0.4,0,0.9,0,1.2c0,0.4-0.1,0.8-0.1,1.2c-0.8,0.3-1.9,0.6-3.2,0.8c-1.3,0.2-2.8,0.3-4.4,0.3c-3.8,0-6.7-0.9-8.9-2.8   c-2.2-1.9-3.2-4.8-3.2-8.8c0-0.8,0.1-1.6,0.2-2.5c0.1-0.9,0.2-1.8,0.4-2.7L430.8,43.7z" fill="#222323"/>
	<path d="M463.5,89.4c-5.7,0-9.9-1.5-12.6-4.5c-2.7-3-4-7.1-4-12.3c0-3.3,0.5-6.7,1.5-10c1-3.4,2.5-6.4,4.5-9.1   c2-2.7,4.5-4.9,7.5-6.6c3-1.7,6.6-2.5,10.6-2.5c5.8,0,10,1.5,12.7,4.6c2.7,3.1,4,7.2,4,12.4c0,3.4-0.5,6.8-1.5,10.2   c-1,3.3-2.5,6.3-4.5,9c-2,2.7-4.5,4.8-7.6,6.4C471.2,88.6,467.6,89.4,463.5,89.4z M464.6,80.4c2.1,0,3.9-0.7,5.3-2   c1.4-1.3,2.6-3,3.5-5c0.9-2,1.6-4,2-6.2c0.4-2.2,0.6-4.2,0.6-5.9c0-5.1-2.1-7.7-6.2-7.7c-2.1,0-3.9,0.7-5.2,2.1   c-1.4,1.4-2.5,3.1-3.4,5.1c-0.9,2-1.5,4.1-1.9,6.3c-0.4,2.2-0.5,4.2-0.5,5.9C458.7,77.9,460.7,80.4,464.6,80.4z" fill="#222323"/>
</g>
<g>
	<polygon fill="#D15197" points="16.6,38.9 31,61.4 31,61.4 47.1,42.1 32.1,20.3  "/>
	<path d="M12.6,32.7C13.5,31.6,21,22.6,28,14.4L18,0h-7.2L0,13L12.6,32.7z" fill="#D15197"/>
	<path d="M34.9,67.5l16,25c0.9-1.1,7.8-9.3,17-20.3L51.2,48L34.9,67.5z" fill="#D15197"/>
	<polygon fill="#D15197" points="72.1,78.1 54.9,98.7 54.9,98.6 66.4,116.5 81.9,92.2  "/>
	<path d="M69.5,26.1L51.3,48l0,0L68,72.2c0,0,0,0,0,0c5.5-6.6,11.9-14.2,18.3-21.9L69.5,26.1z" fill="#5D2F87"/>
	<polygon fill="#5D2F87" points="90.4,56.2 72.1,78.1 72.1,78.1 81.9,92.2 81.9,92.2 97.9,67.1  "/>
	<polygon fill="#5D2F87" points="51.4,0 49,0 32.1,20.3 32.1,20.3 47.1,42.1 47.2,42 65.4,20.2  "/>
	<path d="M18.1,0L18.1,0L28,14.4c0,0,0,0,0-0.1C34.2,6.9,40,0,40,0H18.1z" fill="#5D2F87"/>
	<polygon fill="#25B6EA" points="51.5,0 51.4,0 65.4,20.2 65.4,20.2 82.3,0  "/>
	<path d="M88.5,3.4L69.5,26.1l0,0l16.7,24.1c0,0,0,0,0,0c6.5-7.8,13.1-15.7,19-22.7L88.5,3.4z" fill="#25B6EA"/>
	<polygon fill="#25B6EA" points="109.4,33.4 90.4,56.2 90.4,56.2 97.9,67.1 97.9,67.1 114.6,41  "/>
	<path d="M121.8,0H91.3l-2.7,3.3l-0.1,0.1l16.8,24.1c0,0,0.1-0.1,0.1-0.1C116.5,14,125,3.9,125,3.9L121.8,0z" fill="#93C149"/>
	<polygon fill="#93C149" points="129.5,9.3 109.5,33.3 109.4,33.4 114.6,41 114.7,40.9 132.5,13  "/>
</g>
</svg></svg></g></g></svg>